<svg width="111" height="111" viewBox="0 0 111 111" fill="none" xmlns="http://www.w3.org/2000/svg">
<path d="M23.125 74L46.25 60.125M64.75 50.875L87.875 37M55.5 23.125V46.25M55.5 64.75V87.875M23.125 37L46.25 50.875M64.75 60.125L87.875 74M94.8125 41.625V67.0625M62.4375 94.8125L87.875 80.9375M20.8125 80.9375L48.5625 94.8125M16.1875 69.375V41.625M20.8125 30.0625L48.5625 16.1875M90.1875 30.0625L62.4375 16.1875" stroke="white" stroke-width="6.9375" stroke-linecap="round" stroke-linejoin="round"/>
<path d="M55.5 23.125C59.3315 23.125 62.4375 20.019 62.4375 16.1875C62.4375 12.356 59.3315 9.25 55.5 9.25C51.6685 9.25 48.5625 12.356 48.5625 16.1875C48.5625 20.019 51.6685 23.125 55.5 23.125Z" stroke="white" stroke-width="6.9375" stroke-linecap="round" stroke-linejoin="round"/>
<path d="M55.5 101.75C59.3315 101.75 62.4375 98.644 62.4375 94.8125C62.4375 90.981 59.3315 87.875 55.5 87.875C51.6685 87.875 48.5625 90.981 48.5625 94.8125C48.5625 98.644 51.6685 101.75 55.5 101.75Z" stroke="white" stroke-width="6.9375" stroke-linecap="round" stroke-linejoin="round"/>
<path d="M16.1875 41.625C20.019 41.625 23.125 38.519 23.125 34.6875C23.125 30.856 20.019 27.75 16.1875 27.75C12.356 27.75 9.25 30.856 9.25 34.6875C9.25 38.519 12.356 41.625 16.1875 41.625Z" stroke="white" stroke-width="6.9375" stroke-linecap="round" stroke-linejoin="round"/>
<path d="M94.8125 41.625C98.644 41.625 101.75 38.519 101.75 34.6875C101.75 30.856 98.644 27.75 94.8125 27.75C90.981 27.75 87.875 30.856 87.875 34.6875C87.875 38.519 90.981 41.625 94.8125 41.625Z" stroke="white" stroke-width="6.9375" stroke-linecap="round" stroke-linejoin="round"/>
<path d="M94.8125 83.25C98.644 83.25 101.75 80.144 101.75 76.3125C101.75 72.481 98.644 69.375 94.8125 69.375C90.981 69.375 87.875 72.481 87.875 76.3125C87.875 80.144 90.981 83.25 94.8125 83.25Z" stroke="white" stroke-width="6.9375" stroke-linecap="round" stroke-linejoin="round"/>
<path d="M16.1875 83.25C20.019 83.25 23.125 80.144 23.125 76.3125C23.125 72.481 20.019 69.375 16.1875 69.375C12.356 69.375 9.25 72.481 9.25 76.3125C9.25 80.144 12.356 83.25 16.1875 83.25Z" stroke="white" stroke-width="6.9375" stroke-linecap="round" stroke-linejoin="round"/>
<path d="M55.5 45.0938L64.75 50.2969V60.7031L55.5 65.9062L46.25 60.7031V50.2969L55.5 45.0938Z" stroke="white" stroke-width="6.9375" stroke-linecap="round" stroke-linejoin="round"/>
</svg>
