<svg width="86" height="86" viewBox="0 0 86 86" fill="none" xmlns="http://www.w3.org/2000/svg">
<g clip-path="url(#clip0_329_185)">
<path fill-rule="evenodd" clip-rule="evenodd" d="M46.2387 57.3192C49.8017 55.259 52.9143 52.5036 55.3915 49.2168C54.5931 47.9751 54.0251 46.5996 53.7145 45.1564L53.5978 44.6158C53.2632 43.0724 52.4751 41.6643 51.3346 40.5719C50.1942 39.4796 48.7533 38.753 47.197 38.4852C34.469 36.2738 34.469 18.0049 47.197 15.7874C48.7002 15.5286 50.0968 14.8415 51.2191 13.8085C52.3415 12.7755 53.1418 11.4406 53.5241 9.96394C50.5311 6.70249 46.8685 4.12653 42.7872 2.41251C38.7059 0.698498 34.3023 -0.113062 29.8781 0.0334251C25.4538 0.179912 21.1136 1.28099 17.1546 3.26122C13.1956 5.24145 9.71137 8.05405 6.94067 11.5063C4.16998 14.9586 2.17825 18.969 1.10193 23.2628C0.0256057 27.5566 -0.109872 32.0323 0.704774 36.3833C1.51942 40.7344 3.26494 44.8579 5.82176 48.4714C8.37857 52.085 11.6863 55.1032 15.5183 57.3192V64.5002C15.5183 66.1294 16.1655 67.6919 17.3175 68.8439C18.4695 69.9959 20.0319 70.6431 21.6611 70.6431H40.0897C41.7189 70.6431 43.2813 69.9959 44.4333 68.8439C45.5854 67.6919 46.2325 66.1294 46.2325 64.5002L46.2387 57.3192ZM15.5244 81.3931C15.5244 80.1712 16.0098 78.9994 16.8738 78.1353C17.7378 77.2713 18.9097 76.7859 20.1315 76.7859H41.6315C42.8534 76.7859 44.0253 77.2713 44.8893 78.1353C45.7533 78.9994 46.2387 80.1712 46.2387 81.3931C46.2387 82.615 45.7533 83.7868 44.8893 84.6508C44.0253 85.5148 42.8534 86.0002 41.6315 86.0002H20.1315C18.9097 86.0002 17.7378 85.5148 16.8738 84.6508C16.0098 83.7868 15.5244 82.615 15.5244 81.3931ZM60.2444 10.5475C61.3685 5.41208 68.6785 5.38137 69.8457 10.5045L69.901 10.7502L70.0115 11.2294C70.6746 14.0353 72.1458 16.5853 74.2432 18.5637C76.3406 20.5421 78.9721 21.862 81.812 22.3602C87.1685 23.2939 87.1685 30.9848 81.812 31.9185C78.9557 32.4189 76.3103 33.7505 74.207 35.7468C72.1037 37.743 70.6358 40.3152 69.987 43.1415L69.8457 43.7681C68.6785 48.8974 61.3624 48.8667 60.2321 43.7251L60.1154 43.1907C59.4961 40.3535 58.0459 37.765 55.9498 35.7553C53.8536 33.7455 51.2064 32.4056 48.3457 31.9062C42.9953 30.9787 42.9953 23.3001 48.3457 22.3664C51.1964 21.8706 53.8359 20.5402 55.9299 18.5434C58.024 16.5466 59.4785 13.9734 60.1093 11.1495L60.2014 10.7502L60.2444 10.5475Z" fill="white"/>
</g>
<defs>
<clipPath id="clip0_329_185">
<rect width="86" height="86" fill="white"/>
</clipPath>
</defs>
</svg>
